<svg xmlns="http://www.w3.org/2000/svg" viewBox="0 0 1024 1024">
  <path d="M196.36 511.578c-3.235.281-6.189.985-8.72 1.97-4.783 1.687-8.58 4.641-11.535 8.86-2.953 4.22-4.5 10.128-4.5 17.724 0 2.25.14 4.642.421 7.173s.985 5.205 2.25 8.159c1.267 2.813 3.236 5.345 5.909 7.455 2.672 2.11 6.33 3.235 10.83 3.235.985 0 2.25-.14 3.798-.422 1.547-.281 3.376-.844 5.627-1.97 2.25-.984 4.5-2.672 6.892-4.782 2.391-2.25 4.36-5.204 6.048-8.861 2.25-4.783 3.657-9.987 4.36-15.614s1.126-13.362 1.267-22.927l-12.097-.563c-3.657 0-7.174.141-10.55.563z" fill="currentColor"/>
  <path d="M713.565 511.578c-3.235.281-6.189.985-8.72 1.97-4.783 1.687-8.58 4.641-11.535 8.86-2.953 4.22-4.5 10.128-4.5 17.724.14 2.25.281 4.642.421 7.173.282 2.532.985 5.205 2.25 8.159 1.267 2.813 3.236 5.345 5.909 7.455 2.672 2.11 6.33 3.235 10.83 3.235.985 0 2.25-.14 3.798-.422 1.547-.281 3.376-.844 5.627-1.97 2.25-.984 4.5-2.672 6.892-4.782 2.391-2.25 4.36-5.204 6.048-8.861 2.25-4.783 3.657-9.987 4.36-15.614s1.126-13.362 1.267-22.927l-12.097-.563c-3.657 0-7.174.141-10.55.563z" fill="currentColor"/>
  <path d="M574.03 474.866c-2.25-3.657-4.923-6.47-7.736-8.158s-5.908-2.532-9.143-2.532c-5.064 0-9.425 1.97-13.082 5.767-3.657 3.938-6.33 8.72-8.299 14.488v.281c-.703 1.829-1.266 3.939-1.687 6.19-.422 2.25-.844 5.344-1.266 9.423-.422 3.939-.704 9.284-.985 16.035s-.422 14.91-.422 24.335.14 16.035.422 19.692c.281 3.657.703 7.033 1.125 9.987 4.08.984 7.877 1.547 11.675 1.547 7.314 0 13.363-1.688 18.286-5.205s8.72-8.017 11.252-13.643c2.673-5.627 4.502-11.957 5.627-18.849 1.125-6.892 1.688-14.206 1.688-22.083 0-8.862-.704-16.317-1.97-22.506-1.406-6.189-3.235-11.112-5.485-14.77z" fill="currentColor"/>
  <path d="M1018.514 165.978l5.627-4.22v-18.285l-2.814-2.814H970.69V98.462l-2.813-8.44-8.44-14.066-4.22-5.626-12.659-8.44-14.066-5.626h-42.197V2.814L877.855 0h-7.033l-8.44 5.626v50.638H842.69l1.407-2.813V9.846l-2.813-5.626L834.25 0h-8.44l-5.626 2.813-4.22 4.22v49.23h-18.286V5.627l-7.033-4.22L782.206 0l-8.439 2.813c-4.923 1.829-2.25 49.231-2.813 53.45l-18.286-1.406V8.44l-1.406-2.814-7.033-4.22L737.196 0l-9.847 4.22v52.044h-21.098V4.22C702.453 2.813 694.716.563 690.778 0l-5.626 2.813-4.22 4.22v47.824l-18.286 1.407c-.562-4.22 2.11-51.622-2.813-53.45L654.207 0h-9.847l-8.44 5.626v50.638h-18.285V7.033c-.562-1.125-8.72-6.189-9.846-7.033h-8.44l-7.033 4.22v52.044h-21.098V5.626L562.778 0h-7.033l-8.44 2.813v53.45h-21.098V7.034c-.704-1.266-7.174-4.782-8.44-5.626L510.734 0l-8.44 2.813-4.22 7.033v45.011l-15.472 1.407c-.562-4.22 2.11-51.622-2.813-53.45L471.349 0h-7.033l-5.626 2.813c-4.923 1.829-2.25 49.231-2.813 53.45l-18.286-1.406V7.033c-.562-1.125-8.72-6.189-9.846-7.033h-8.44l-7.032 4.22v52.044h-21.1V5.626l-7.032-4.22L375.7 0l-5.626 2.813-5.627 5.627v47.824h-18.285V7.033c-.704-1.266-7.174-4.782-8.44-5.626L330.69 0l-7.033 2.813v2.813h-2.813v50.638h-18.286V8.44h-2.813V4.22l-7.033-2.813L284.272 0l-5.626 2.813-4.22 7.033c.704 3.095-1.688 44.308 1.407 46.418h-19.692c-.563-4.22 2.11-51.622-2.814-53.45L247.701 0h-7.033l-7.033 2.813-4.22 5.627v47.824H211.13V7.033c-.704-1.266-7.174-4.782-8.44-5.626L195.657 0l-5.626 2.813-4.22 4.22v49.23h-19.692V8.44l-1.407-2.814L156.272 0h-7.032l-8.44 5.626v50.638H98.602l-1.406 1.406-9.847 1.407-12.659 8.44-12.66 14.065-5.626 14.066v45.011H5.767l-5.626 7.033v11.253l5.626 7.033h50.637v19.692H4.36v2.814L.14 189.89v14.066l7.034 7.033h49.23v18.286H5.767l-5.626 7.033v14.066L8.58 256h47.823v18.286H7.174L.14 281.319v14.066l2.813 2.813 5.626 1.406v2.814h47.824v18.285H4.36l-4.22 7.033v11.253l4.22 7.033h52.044v18.286H5.767L.141 371.34V384l4.22 7.033h52.043v18.286H8.58v2.813H2.954l-2.813 4.22v14.066l7.033 7.033h49.23v18.285H5.767L.141 462.77c0 10.69-1.266 10.69 7.033 18.286h47.824l1.406 19.692H7.174L.14 507.78v14.066l4.22 4.22h52.043l-1.406 19.692H7.174l-2.814 1.407-4.22 7.033v11.253l5.627 5.626h50.637v18.286H7.174L.14 596.396v14.066l2.813 2.813 5.626 1.406v2.814h47.824v18.285H4.36l-4.22 7.033v11.253l4.22 7.033h52.044v18.286H8.58v2.813H2.954l-2.813 4.22v14.066l7.033 7.032h49.23v18.286H5.767L.141 776.44v14.065l7.033 5.627h47.824l1.406 19.692H4.36l-4.22 7.033v11.253l4.22 7.033h52.044v19.692H5.767l-5.626 7.033v11.253l5.626 7.033h50.637v45.01l2.814 8.44 5.626 9.847 4.22 4.22 5.626 5.626c4.36 3.376 18.708 9.143 23.912 11.252H140.8v50.638l2.813 2.813H161.9l4.22-5.626v-47.825h19.692v49.231l4.22 4.22h16.879l4.22-4.22v-49.23h18.285c.563 4.22-2.11 51.621 2.814 53.45h21.098c4.924-1.829 2.251-49.23 2.814-53.45h19.692l-1.407 2.813v43.604l4.22 7.033h19.692l4.22-5.626v-47.825h18.286v50.638h2.813V1024h18.286l4.22-4.22v-49.23h18.285v45.01l5.627 8.44h18.285l2.814-2.813v-50.638h21.099v52.044l1.406 1.407h19.692l4.22-4.22v-47.824l18.286-1.407c.563 4.22-2.11 51.622 2.813 53.451h18.286l5.626-5.626v-47.825l15.473 1.407v45.011l7.033 7.033h16.879l4.22-4.22v-49.23h21.098v50.637l2.814 2.813h18.285l2.814-2.813v-50.638h21.098v52.044l1.407 1.407h19.692l4.22-4.22v-49.23h18.286c.563 4.22-2.11 51.621 2.813 53.45h21.099c4.923-1.829 2.25-49.23 2.813-53.45h18.286v49.23l4.22 4.22h21.099v-53.45h21.098v50.637l2.814 2.813h18.285l4.22-5.626v-46.418l18.286-1.407v47.825l5.626 5.626h18.286c4.923-1.829 2.25-49.23 2.813-53.45h18.286v49.23l4.22 4.22h19.692l4.22-9.846v-40.791l-1.407-2.814h19.692v50.638l2.814 2.813h18.285l2.814-2.813v-50.638h42.197c.141-1.687 12.8-5.063 14.066-5.626l8.44-5.626 7.033-7.033c4.079-4.783 10.127-18.005 12.66-23.912v-42.198h49.23l4.22-2.813v-21.1c-.563-2.25-50.497-1.125-53.45-1.406v-19.692h49.23l4.22-4.22v-18.286l-4.22-2.813h-49.23l1.406-19.692c2.11-.281 51.622.984 52.044-1.407v-21.099l-1.407-1.406-1.407-1.407H970.69v-18.286h49.23l4.22-4.22v-19.692c-.984-.844-4.782-3.657-5.626-4.22H970.69V706.11h50.637l2.814-2.813v-21.1l-1.407-1.406H970.69V661.1h50.637l2.814-1.407v-21.099l-2.814-2.813H970.69v-18.285h47.824l5.627-4.22v-19.693l-7.033-4.22H970.69v-18.285h49.23l4.22-2.813v-21.1c-.562-2.25-50.496-1.124-53.45-1.406v-19.692h52.044l1.407-1.407v-19.692l-4.22-4.22h-49.23v-19.692h47.823l5.627-4.22V458.55l-2.814-2.813H970.69v-18.285h46.418l7.033-4.22v-19.693l-5.627-4.22H970.69v-18.285h50.637l2.814-2.813v-21.1c-1.829-4.922-49.231-2.25-53.45-2.812v-18.286h49.23l4.22-4.22v-18.286l-2.814-2.813H970.69v-18.285h47.824v-2.814h5.627v-21.099l-7.033-4.22H970.69V256c4.22-.563 51.622 2.11 53.45-2.813v-21.1l-4.22-2.812h-49.23v-18.286h49.23l4.22-4.22V189.89l-4.22-4.22h-49.23v-19.692h47.824z" fill="currentColor"/>
</svg>